<?xml version="1.0" encoding="UTF-8"?><svg xmlns="http://www.w3.org/2000/svg" xmlns:xlink="http://www.w3.org/1999/xlink" viewBox="0 0 1165.41 1165.41"><defs><style>.f{fill:#fff;}.g{filter:url(#d);}</style><filter id="d" filterUnits="userSpaceOnUse"><feOffset dx="30" dy="30"/><feGaussianBlur result="e" stdDeviation="10"/><feFlood flood-color="#000" flood-opacity=".75"/><feComposite in2="e" operator="in"/><feComposite in="SourceGraphic"/></filter></defs><g id="a"/><g id="b"><g id="c"><g class="g"><g><polygon class="f" points="728.84 229.06 436.57 229.06 482.24 0 683.17 0 728.84 229.06"/><polygon class="f" points="435.97 229.31 229.31 435.97 99.63 241.71 241.71 99.63 435.97 229.31"/><polygon class="f" points="229.06 436.57 229.06 728.84 0 683.17 0 482.24 229.06 436.57"/><polygon class="f" points="229.31 729.44 435.97 936.11 241.71 1065.78 99.63 923.7 229.31 729.44"/><polygon class="f" points="436.57 936.36 728.84 936.36 683.17 1165.41 482.24 1165.41 436.57 936.36"/><polygon class="f" points="729.44 936.11 936.11 729.44 1065.78 923.7 923.7 1065.78 729.44 936.11"/><polygon class="f" points="936.36 728.84 936.36 436.57 1165.41 482.24 1165.41 683.17 936.36 728.84"/><polygon class="f" points="936.11 435.97 729.44 229.31 923.7 99.63 1065.78 241.71 936.11 435.97"/></g><path class="f" d="M582.71,97.19c-268.14,0-485.52,217.37-485.52,485.52s217.38,485.5,485.52,485.5,485.52-217.36,485.52-485.5S850.85,97.19,582.71,97.19Zm0,765.73c-154.76,0-280.21-125.46-280.21-280.21s125.46-280.23,280.21-280.23,280.21,125.46,280.21,280.23-125.46,280.21-280.21,280.21Z"/></g></g></g></svg>