<?xml version="1.0" encoding="UTF-8"?><svg xmlns="http://www.w3.org/2000/svg" viewBox="0 0 2410.07 2410.07"><defs><style>.e{stroke-width:105.66px;}.e,.f,.g,.h,.i,.j{stroke-miterlimit:10;}.e,.h,.i,.j{fill:none;}.e,.i{stroke:#58595b;}.f{stroke-width:63.35px;}.f,.j{stroke:#e6e7e8;}.g{stroke-width:59.29px;}.g,.h{stroke:#000;}.h{stroke-width:102.18px;}.i{stroke-width:61.31px;}.j{stroke-width:109.17px;}</style></defs><g id="a"/><g id="b"><g id="c"><g id="d"><g><circle class="j" cx="1205.03" cy="1205.03" r="994.42"/><g><g><polygon class="f" points="1349.39 203.47 1060.67 203.47 1119.64 31.67 1290.42 31.67 1349.39 203.47"/><polygon class="f" points="1349.39 2206.6 1060.67 2206.6 1119.64 2378.39 1290.42 2378.39 1349.39 2206.6"/></g><g><polygon class="f" points="2206.6 1349.39 2206.6 1060.67 2378.39 1119.64 2378.39 1290.42 2206.6 1349.39"/><polygon class="f" points="203.47 1349.39 203.47 1060.67 31.67 1119.64 31.67 1290.42 203.47 1349.39"/></g><g><polygon class="f" points="2015.33 598.9 1811.17 394.74 1974.34 314.96 2095.1 435.72 2015.33 598.9"/><polygon class="f" points="598.9 2015.33 394.74 1811.17 314.96 1974.34 435.72 2095.1 598.9 2015.33"/></g><g><polygon class="f" points="1811.17 2015.33 2015.33 1811.17 2095.1 1974.34 1974.34 2095.1 1811.17 2015.33"/><polygon class="f" points="394.74 598.9 598.9 394.74 435.72 314.96 314.96 435.72 394.74 598.9"/></g><g><polygon class="f" points="1720.18 334.06 1453.24 224.03 1573.23 87.67 1731.12 152.75 1720.18 334.06"/><polygon class="f" points="956.83 2186.04 689.89 2076.01 678.95 2257.31 836.84 2322.39 956.83 2186.04"/></g><g><polygon class="f" points="2076.01 1720.18 2186.04 1453.24 2322.39 1573.23 2257.31 1731.12 2076.01 1720.18"/><polygon class="f" points="224.03 956.83 334.06 689.89 152.75 678.95 87.67 836.84 224.03 956.83"/></g><g><polygon class="f" points="2185.17 953.42 2074.22 686.87 2255.48 675.29 2321.11 832.96 2185.17 953.42"/><polygon class="f" points="335.85 1723.2 224.9 1456.65 88.96 1577.11 154.59 1734.77 335.85 1723.2"/></g><g><polygon class="f" points="1456.65 2185.17 1723.2 2074.22 1734.77 2255.48 1577.11 2321.11 1456.65 2185.17"/><polygon class="f" points="686.87 335.85 953.42 224.9 832.96 88.96 675.29 154.59 686.87 335.85"/></g></g></g><g><circle class="e" cx="1205.03" cy="1205.03" r="962.46"/><g><g><polygon class="i" points="1344.75 235.66 1065.31 235.66 1122.39 69.39 1287.68 69.39 1344.75 235.66"/><polygon class="i" points="1344.75 2174.41 1065.31 2174.41 1122.39 2340.68 1287.68 2340.68 1344.75 2174.41"/></g><g><polygon class="i" points="2174.41 1344.75 2174.41 1065.31 2340.68 1122.39 2340.68 1287.68 2174.41 1344.75"/><polygon class="i" points="235.66 1344.75 235.66 1065.31 69.39 1122.39 69.39 1287.68 235.66 1344.75"/></g><g><polygon class="i" points="1989.28 618.38 1791.69 420.78 1949.62 343.57 2066.49 460.45 1989.28 618.38"/><polygon class="i" points="618.38 1989.28 420.78 1791.69 343.57 1949.62 460.45 2066.49 618.38 1989.28"/></g><g><polygon class="i" points="1791.69 1989.28 1989.28 1791.69 2066.49 1949.62 1949.62 2066.49 1791.69 1989.28"/><polygon class="i" points="420.78 618.38 618.38 420.78 460.45 343.57 343.57 460.45 420.78 618.38"/></g><g><polygon class="i" points="1703.62 362.05 1445.26 255.56 1561.39 123.58 1714.21 186.57 1703.62 362.05"/><polygon class="i" points="964.8 2154.51 706.45 2048.02 695.85 2223.49 848.67 2286.48 964.8 2154.51"/></g><g><polygon class="i" points="2048.02 1703.62 2154.51 1445.26 2286.48 1561.39 2223.49 1714.21 2048.02 1703.62"/><polygon class="i" points="255.56 964.8 362.05 706.45 186.57 695.85 123.58 848.67 255.56 964.8"/></g><g><polygon class="i" points="2153.67 961.51 2046.28 703.52 2221.72 692.32 2285.24 844.92 2153.67 961.51"/><polygon class="i" points="363.79 1706.55 256.4 1448.56 124.83 1565.15 188.35 1717.75 363.79 1706.55"/></g><g><polygon class="i" points="1448.56 2153.67 1706.55 2046.28 1717.75 2221.72 1565.15 2285.24 1448.56 2153.67"/><polygon class="i" points="703.52 363.79 961.51 256.4 844.92 124.83 692.32 188.35 703.52 363.79"/></g></g></g><g><circle class="h" cx="1205.03" cy="1205.03" r="930.74"/><g><g><polygon class="g" points="1340.15 267.6 1069.91 267.6 1125.11 106.8 1284.95 106.8 1340.15 267.6"/><polygon class="g" points="1340.15 2142.47 1069.91 2142.47 1125.11 2303.26 1284.95 2303.26 1340.15 2142.47"/></g><g><polygon class="g" points="2142.47 1340.15 2142.47 1069.91 2303.26 1125.11 2303.26 1284.95 2142.47 1340.15"/><polygon class="g" points="267.6 1340.15 267.6 1069.91 106.8 1125.11 106.8 1284.95 267.6 1340.15"/></g><g><polygon class="g" points="1963.44 637.71 1772.36 446.62 1925.09 371.95 2038.11 484.98 1963.44 637.71"/><polygon class="g" points="637.71 1963.44 446.62 1772.36 371.95 1925.09 484.98 2038.11 637.71 1963.44"/></g><g><polygon class="g" points="1772.36 1963.44 1963.44 1772.36 2038.11 1925.09 1925.09 2038.11 1772.36 1963.44"/><polygon class="g" points="446.62 637.71 637.71 446.62 484.98 371.95 371.95 484.98 446.62 637.71"/></g><g><polygon class="g" points="1687.19 389.82 1437.35 286.84 1549.65 159.22 1697.43 220.13 1687.19 389.82"/><polygon class="g" points="972.72 2123.22 722.87 2020.24 712.63 2189.94 860.41 2250.85 972.72 2123.22"/></g><g><polygon class="g" points="2020.24 1687.19 2123.22 1437.35 2250.85 1549.65 2189.94 1697.43 2020.24 1687.19"/><polygon class="g" points="286.84 972.72 389.82 722.87 220.13 712.63 159.22 860.41 286.84 972.72"/></g><g><polygon class="g" points="2122.41 969.53 2018.56 720.04 2188.22 709.21 2249.65 856.78 2122.41 969.53"/><polygon class="g" points="391.5 1690.02 287.65 1440.53 160.42 1553.28 221.84 1700.85 391.5 1690.02"/></g><g><polygon class="g" points="1440.53 2122.41 1690.02 2018.56 1700.85 2188.22 1553.28 2249.65 1440.53 2122.41"/><polygon class="g" points="720.04 391.5 969.53 287.65 856.78 160.42 709.21 221.84 720.04 391.5"/></g></g></g></g></g></g></svg>