<?xml version="1.0" encoding="UTF-8"?><svg xmlns="http://www.w3.org/2000/svg" viewBox="0 0 1667.64 1667.89"><defs><style>.f{fill:#fff;}</style></defs><g id="a"/><g id="b"><g id="c"><g id="d"><path id="e" class="f" d="M728.99,1667.89v-121.57c-146.62-11.68-266.95-84.16-364.28-189.96h937.27c-93.61,107.28-220.21,178.56-364.28,189.96v121.57c284.52-53.07,531-206.92,655.3-478.69,204.28-446.67-26.93-992.22-495.92-1147.34C1023.62,17.55,943.14,.99,865.6,.07c-217.32-2.59-428.77,65.81-591.96,213.38-346.92,313.72-372.94,895.4-26.55,1222.34,138.31,130.55,297.67,197.73,481.9,232.09M835.24,41.85c19.83,17.36,38.21,34.7,52.74,56.99,79.43,121.85-55.51,226.92-132.43,303.93-78.42,78.51-156.39,157.48-235.27,235.53-65.88,65.2-134.24,127.33-159.67,220.37-17.46,63.86-.59,123.13,7.89,186.16-25.4-19.45-43.83-48.93-60.47-75.98-132.13-214.8,91.62-396.15,231.87-529.22,32.13-30.49,62.91-62.5,94.22-93.84,41.46-41.51,85.52-81.58,124.56-125.37,27.99-31.4,51.57-69.66,63.5-110.18,6.46-21.95,4.38-47.75,13.05-68.38m227.68,56.99c124.23,95.41,22.18,239.94-56.92,319.13-116.89,117.03-231.97,236.4-352.9,349.18-84.89,79.17-182.06,184.16-182.14,308.07-96.75-80.26-42.49-237.49,18.57-319.13,50.78-67.89,117.77-124.11,178.74-182.51,54.18-51.89,104.51-107.91,159.37-159.08,69.82-65.11,144.82-131.24,195.71-213.09,20.7-33.29,24.77-68.24,39.56-102.58m110.04,205.15c13.03,40.81,22.64,82.23,18.32,125.37-11.6,116.14-126.2,200.93-204.92,274.77-55.73,52.28-108.5,108.06-162.51,162.13-89.84,89.95-179.52,181.21-203.15,311.53-8.56,47.24-.42,86.5,5.83,132.97-117.03-67.92-100.14-247.83-46.91-349.52,39.37-75.2,97.16-127.81,156.96-186.22,64.82-63.31,128.16-128.06,193.51-190.79,60.47-58.05,122.79-116.6,176.03-181.47,25.03-30.5,41.15-70.29,66.84-98.78m189.73,83.58c14.65,45.08,25.79,92.84,17.21,140.57-17.54,97.56-113.79,172.44-182.41,235.93-56.74,52.5-109.64,108.93-164.93,162.92-112.13,109.52-220.09,217.95-220.09,383.77h-3.79c-34.22-55.52-69.59-106.33-68.25-174.76,1.82-92.59,67.32-166.23,128.96-227.95,99.92-100.04,202.45-197.64,303.57-296.39,45.8-44.73,91.13-90.41,131.11-140.51,20.74-25.99,35.41-60.59,58.62-83.58m-3.79,303.93c4.77,60.55,11.19,113.37-14.67,170.96-26.67,59.41-80.68,103.06-125.73,148.17-90.27,90.38-180.44,173.65-216.29,300.13-61.44-50.97-41.92-153.16-15.12-216.55,35.84-84.78,113.67-143.44,178.29-205.3,66.15-63.33,126.65-136.22,193.53-197.41"/></g></g></g></svg>