<?xml version="1.0" encoding="UTF-8"?><svg xmlns="http://www.w3.org/2000/svg" viewBox="0 0 3544.45 713.89"><defs><style>.d{fill:#fff;}</style></defs><g id="a"/><g id="b"><g id="c"><g><path class="d" d="M0,106.98c0-14.65,2-27.32,6-37.99,4-10.65,9.16-19.5,15.5-26.5,6.33-7,13.65-12.33,22-16,8.33-3.66,16.83-6.15,25.5-7.5,6.66-1.33,14.5-2.66,23.5-4,9-1.33,20.32-2.5,33.99-3.5,13.65-1,30.32-1.83,49.99-2.5,19.65-.66,43.49-1,71.49-1,61.99,0,113.14,5,153.48,14.98,40.32,9.98,72.32,23.79,95.99,41.43,23.65,17.64,40.32,38.43,49.99,62.4,9.66,23.97,14.5,49.93,14.5,77.88,0,20.64-2.5,38.95-7.5,54.91-5,15.98-11.34,30.12-19,42.43-7.67,12.31-16.17,22.79-25.5,31.45-9.34,8.66-18.67,15.65-28,20.97,10.65,4.02,22,10.03,33.99,18.03,12,8.02,23,18.2,32.99,30.54,10,12.34,18.33,27.37,25,45.06,6.66,17.68,10,38.21,10,61.57,0,30.71-4.67,58.59-14,83.61-9.34,25.03-26.34,46.56-50.99,64.57-24.67,18.03-58.66,31.87-101.98,41.56-43.34,9.67-98.66,14.51-165.98,14.51-33.34,0-64.66-.5-93.99-1.5-29.34-1-55.34-2-77.99-3-22.67-1-40.99-2.17-54.99-3.5-14-1.34-22-2-24-2V106.98Zm307.95,179.97c16.65,0,30.5-1.83,41.49-5.5,11-3.66,19.83-8.66,26.5-15,6.66-6.33,11.33-13.33,14-21,2.66-7.66,4-15.5,4-23.5,0-8.66-1.5-17.33-4.5-26-3-8.66-9-16.33-18-23-9-6.66-21.67-12-37.99-16-16.34-4-37.49-6-63.49-6-27.34,0-51.16,.84-71.49,2.5-20.34,1.67-32.17,2.84-35.49,3.5v129.98h144.98Zm-144.98,276.96c3.33,.67,14.5,1.84,33.49,3.5,19,1.67,47.49,2.5,85.49,2.5,26,0,47.32-1.66,63.99-5,16.65-3.33,30-8,39.99-14s17-13.33,21-22c4-8.66,6-18.65,6-29.99,0-8.66-1.34-17-4-25-2.67-8-7.5-15.15-14.5-21.5-7-6.33-16.34-11.33-28-15-11.67-3.66-26.84-5.5-45.49-5.5H162.98v131.98Z"/><path class="d" d="M613.91,703.89c14-37.32,31-80.82,50.99-130.48,20-49.65,41.49-102.31,64.49-157.98,23-55.65,46.99-112.48,71.99-170.47,25-57.99,49.49-113.98,73.49-167.97,12.65-28.65,28.15-48.65,46.49-59.99,18.33-11.33,42.49-17,72.49-17,11.33,0,22.5,1.34,33.5,4,11,2.67,20.83,5.84,29.5,9.5,8.66,3.67,15.65,7.17,21,10.5,5.33,3.34,8.66,5.34,10,6,10,16.67,23.15,42.99,39.49,78.99,16.33,35.99,34.15,76.49,53.49,121.48,19.33,44.99,39.32,92.16,59.99,141.48,20.65,49.34,39.82,96.16,57.49,140.48,17.65,44.34,33.15,83.66,46.49,117.98,13.33,34.34,22.65,58.84,28,73.49h-183.97c-7.34-19.33-15.34-40.82-24-64.49-8.67-23.65-19.34-51.49-31.99-83.49h-290.96c-10.67,28-20.17,53.66-28.5,76.99-8.34,23.34-17.17,46.99-26.5,70.99h-172.97Zm461.93-298.95c-6.67-18-14.34-38.15-23-60.49-8.67-22.32-17-43.99-25-64.99-8-21-15.5-40.32-22.5-57.99-7-17.65-12.5-30.82-16.5-39.49-4,9.34-9.34,22.5-16,39.49-6.67,17-14,35.99-22,56.99-8,21-16.34,42.49-25,64.49-8.67,22-16.67,42.67-24,61.99h173.97Z"/><path class="d" d="M1447.78,703.89V91.99c0-27.32,8-46.49,24-57.49,16-11,36.99-16.5,62.99-16.5,19.32,0,36.49,2.34,51.49,7,15,4.67,24.5,7.67,28.5,9V547.92h316.95v155.98h-483.93Z"/><path class="d" d="M1941.69,703.89c14-37.32,31-80.82,50.99-130.48,20-49.65,41.49-102.31,64.49-157.98,23-55.65,46.99-112.48,71.99-170.47,25-57.99,49.49-113.98,73.49-167.97,12.65-28.65,28.15-48.65,46.49-59.99,18.33-11.33,42.49-17,72.49-17,11.33,0,22.5,1.34,33.5,4,11,2.67,20.82,5.84,29.5,9.5,8.66,3.67,15.65,7.17,21,10.5,5.33,3.34,8.66,5.34,10,6,10,16.67,23.15,42.99,39.49,78.99,16.33,35.99,34.15,76.49,53.49,121.48,19.33,44.99,39.32,92.16,59.99,141.48,20.65,49.34,39.82,96.16,57.49,140.48,17.65,44.34,33.15,83.66,46.49,117.98,13.33,34.34,22.65,58.84,28,73.49h-183.97c-7.34-19.33-15.34-40.82-24-64.49-8.67-23.65-19.34-51.49-31.99-83.49h-290.96c-10.67,28-20.17,53.66-28.5,76.99-8.34,23.34-17.17,46.99-26.5,70.99h-172.97Zm461.93-298.95c-6.67-18-14.34-38.15-23-60.49-8.67-22.32-17-43.99-25-64.99-8-21-15.5-40.32-22.5-57.99-7-17.65-12.5-30.82-16.5-39.49-4,9.34-9.34,22.5-16,39.49-6.67,17-14,35.99-22,56.99-8,21-16.34,42.49-25,64.49-8.67,22-16.67,42.67-24,61.99h173.97Z"/><path class="d" d="M2804.56,103.98c.66-16.65,3.83-30.65,9.5-41.99,5.66-11.33,13-20.15,22-26.5,9-6.33,19.15-10.83,30.5-13.5,11.33-2.66,23.33-4,35.99-4,26,0,47.99,3.67,65.99,11,18,7.34,30,13.67,35.99,19,24,49.34,49.15,101.83,75.49,157.48,26.32,55.66,53.15,109.48,80.49,161.47,24-47.99,47.49-95.31,70.49-141.98,23-46.65,44.15-90.99,63.49-132.98,12.65-28.65,28.15-48.15,46.49-58.49,18.32-10.33,39.15-15.5,62.49-15.5,25.32,0,47.49,3.5,66.49,10.5,19,7,31.15,12.5,36.49,16.5l37.99,658.9h-167.97l-23-409.94c-12,24.67-24.34,49.99-36.99,75.99-12.67,26-24.84,51.66-36.49,76.99-11.67,25.34-22.67,49.49-33,72.49-10.34,23-19.5,43.49-27.5,61.49h-123.98c-7.34-18-16.5-38.99-27.5-62.99-11-24-22.5-48.99-34.49-74.99-12-26-24.34-51.82-36.99-77.49-12.67-25.65-24.34-49.15-34.99-70.49l-22,408.94h-168.98l33.99-599.91Z"/></g></g></g></svg>